# xmcd CD database file
#
# Track frame offsets:
#	150
#	14394
#	26489
#	37790
#	57036
#	69712
#	82743
#	96662
#	109789
#	124301
#	139517
#	153859
#	165391
#	175712
#	189278
#	202356
#	212129
#	226247
#	238185
#	256874
#	271982
#	287035
#	302778
#
# Disc length: 4436 seconds
#
# Revision: 0
# Processed by: cddbd v1.5PL3 Copyright (c) Steve Scherf et al.
# Submitted via: CDex 1.51
#
DISCID=39115217
DTITLE=Benny Goodman - Benny Goodman And Artie Shaw
DYEAR=1900
DGENRE=Jazz
TTITLE0=Artie Shaw/ Indian Love Call
TTITLE1=Artie Shaw/ It's a long Way to Tipperary
TTITLE2=Artie Shaw/ Nightmare
TTITLE3=Benny Goodman/ Avalon
TTITLE4=Benny Goodman/ It don't mean a thing
TTITLE5=Benny Goodman/ Loch Lomond
TTITLE6=Artie Shaw/ Frenesi
TTITLE7=Benny Goodman/ Tiger Rag
TTITLE8=Benny Goodman/ Sixtenth Track
TTITLE9=Artie Shaw/ Summit Ridge Drive
TTITLE10=Artie Shaw/ Deep Purpe
TTITLE11=Artie Shaw/ It had to be you
TTITLE12=Benny Goodman/ Fascinating Rhythm
TTITLE13=Benny Goodman/ Jersey Bounce
TTITLE14=Artie Shaw/ My Blue Heaven
TTITLE15=Benny Goodman/ Alexander Ragtime
TTITLE16=Benny Goodman/ Little Brown Jug
TTITLE17=Benny Goodman/ My wild Irish Rose
TTITLE18=Artie Shaw/ Donkey Serenade
TTITLE19=Artie Shaw/ I can't get started with you
TTITLE20=Artie Shaw/ Softly, as in a Morning Sunrise
TTITLE21=Benny Goodman/ Limehouse Blues
TTITLE22=Benny Goodman/ Seven Come Eleven
EXTD=
EXTT0=
EXTT1=
EXTT2=
EXTT3=
EXTT4=
EXTT5=
EXTT6=
EXTT7=
EXTT8=
EXTT9=
EXTT10=
EXTT11=
EXTT12=
EXTT13=
EXTT14=
EXTT15=
EXTT16=
EXTT17=
EXTT18=
EXTT19=
EXTT20=
EXTT21=
EXTT22=
PLAYORDER=
